<svg xmlns = "http://www.w3.org/2000/svg" width = "1000" height = "1000">
<g>
<polygon points = "772.436, 1000.000 1000.000, 694.404 1000.000, 1000.000 "
fill = "none" stroke = "black"/>
</g>
<g>
<polygon points = "467.583, 515.744 429.618, 126.398 537.138, 28.845 830.923, 131.599 1000.000, 245.861 1000.000, 545.636 "
fill = "none" stroke = "black"/>
</g>
<g>
<polygon points = "406.153, 612.815 410.614, 640.471 80.448, 1000.000 0.000, 1000.000 0.000, 516.395 "
fill = "none" stroke = "black"/>
</g>
<g>
<polygon points = "231.476, 104.945 429.618, 126.398 467.583, 515.744 406.153, 612.815 0.000, 516.395 0.000, 105.711 "
fill = "none" stroke = "black"/>
</g>
<g>
<polygon points = "231.476, 104.945 0.000, 105.711 0.000, 0.000 331.881, 0.000 "
fill = "none" stroke = "black"/>
</g>
<g>
<polygon points = "830.923, 131.599 798.555, 0.000 1000.000, 0.000 1000.000, 245.861 "
fill = "none" stroke = "black"/>
</g>
<g>
<polygon points = "410.614, 640.471 668.730, 1000.000 80.448, 1000.000 "
fill = "none" stroke = "black"/>
</g>
<g>
<polygon points = "537.138, 28.845 429.618, 126.398 231.476, 104.945 331.881, 0.000 538.535, 0.000 "
fill = "none" stroke = "black"/>
</g>
<g>
<polygon points = "772.436, 1000.000 668.730, 1000.000 410.614, 640.471 406.153, 612.815 467.583, 515.744 1000.000, 545.636 1000.000, 694.404 "
fill = "none" stroke = "black"/>
</g>
<g>
<polygon points = "830.923, 131.599 537.138, 28.845 538.535, 0.000 798.555, 0.000 "
fill = "none" stroke = "black"/>
</g>
</svg>
