<svg xmlns = "http://www.w3.org/2000/svg" width = "1000" height = "1000">
<g>
<polygon points = "644.677, 1000.000 647.593, 970.558 965.458, 543.697 1000.000, 521.321 1000.000, 1000.000 "
fill = "none" stroke = "black"/>
</g>
<g>
<polygon points = "965.458, 543.697 467.583, 515.744 442.561, 259.134 529.819, 179.966 872.281, 299.745 1000.000, 386.058 1000.000, 521.321 "
fill = "none" stroke = "black"/>
</g>
<g>
<polygon points = "406.153, 612.815 410.614, 640.471 80.448, 1000.000 0.000, 1000.000 0.000, 516.395 "
fill = "none" stroke = "black"/>
</g>
<g>
<polygon points = "117.615, 223.953 442.561, 259.134 467.583, 515.744 406.153, 612.815 0.000, 516.395 0.000, 224.342 "
fill = "none" stroke = "black"/>
</g>
<g>
<polygon points = "117.615, 223.953 0.000, 224.342 0.000, 0.000 331.881, 0.000 "
fill = "none" stroke = "black"/>
</g>
<g>
<polygon points = "872.281, 299.745 798.555, 0.000 1000.000, 0.000 1000.000, 386.058 "
fill = "none" stroke = "black"/>
</g>
<g>
<polygon points = "410.614, 640.471 647.593, 970.558 644.677, 1000.000 80.448, 1000.000 "
fill = "none" stroke = "black"/>
</g>
<g>
<polygon points = "529.819, 179.966 442.561, 259.134 117.615, 223.953 331.881, 0.000 538.535, 0.000 "
fill = "none" stroke = "black"/>
</g>
<g>
<polygon points = "410.614, 640.471 406.153, 612.815 467.583, 515.744 965.458, 543.697 647.593, 970.558 "
fill = "none" stroke = "black"/>
</g>
<g>
<polygon points = "872.281, 299.745 529.819, 179.966 538.535, 0.000 798.555, 0.000 "
fill = "none" stroke = "black"/>
</g>
</svg>
